<?xml version="1.0" encoding="UTF-8" standalone="no"?>
<!-- Created with Inkscape (http://www.inkscape.org/) -->

<svg
   xmlns:dc="http://purl.org/dc/elements/1.1/"
   xmlns:cc="http://creativecommons.org/ns#"
   xmlns:rdf="http://www.w3.org/1999/02/22-rdf-syntax-ns#"
   xmlns:svg="http://www.w3.org/2000/svg"
   xmlns="http://www.w3.org/2000/svg"
   xmlns:sodipodi="http://sodipodi.sourceforge.net/DTD/sodipodi-0.dtd"
   xmlns:inkscape="http://www.inkscape.org/namespaces/inkscape"
   width="199.99995"
   height="199.9752"
   viewBox="0 0 199.99995 199.97521"
   id="svg6502"
   version="1.1"
   inkscape:version="0.91 r13725"
   sodipodi:docname="tag_icon.svg">
  <defs
     id="defs6504" />
  <sodipodi:namedview
     id="base"
     pagecolor="#ffffff"
     bordercolor="#666666"
     borderopacity="1.0"
     inkscape:pageopacity="0.0"
     inkscape:pageshadow="2"
     inkscape:zoom="0.35"
     inkscape:cx="-431.81861"
     inkscape:cy="186.13457"
     inkscape:document-units="px"
     inkscape:current-layer="layer1"
     showgrid="false"
     fit-margin-top="20"
     fit-margin-left="20"
     fit-margin-right="20"
     fit-margin-bottom="20"
     units="px"
     inkscape:window-width="1366"
     inkscape:window-height="705"
     inkscape:window-x="-8"
     inkscape:window-y="-8"
     inkscape:window-maximized="1" />
  <metadata
     id="metadata6507">
    <rdf:RDF>
      <cc:Work
         rdf:about="">
        <dc:format>image/svg+xml</dc:format>
        <dc:type
           rdf:resource="http://purl.org/dc/dcmitype/StillImage" />
        <dc:title></dc:title>
      </cc:Work>
    </rdf:RDF>
  </metadata>
  <g
     inkscape:label="Layer 1"
     inkscape:groupmode="layer"
     id="layer1"
     transform="translate(-418.24718,-518.52157)">
    <path
       style="fill:#dc0000"
       d="m 486.05068,693.84268 c -6.6014,-5.8255 -44.588,-44.1036 -46.4373,-46.7937 -0.9955,-1.4482 -1.3662,-2.9287 -1.3662,-5.4565 0,-3.1189 0.2649,-3.8042 2.6256,-6.7907 3.9076,-4.9435 69.2351,-69.923 70.9548,-70.5769 1.6747,-0.6366 20.3568,-0.7715 23.3712,-0.1687 1.967,0.3934 1.9689,0.398 1.9726,4.568 0,2.2958 0.276,5.8371 0.6088,7.8695 0.4883,2.9813 0.4166,4.06 -0.371,5.583 -0.537,1.0383 -0.9878,3.3448 -1.0021,5.1257 -0.061,7.6251 5.2698,13.1477 12.7933,13.2542 5.0159,0.071 9.0624,-2.455 11.4373,-7.1396 2.6472,-5.2215 2.0583,-9.9333 -1.8055,-14.4473 -1.5862,-1.8531 -2.2299,-3.3751 -2.7294,-6.4534 -1.1707,-7.2151 -1.2327,-7.0774 2.9598,-6.573 5.9187,0.712 9.0015,1.6768 9.9129,3.1024 1.5199,2.377 3.7751,22.7005 4.5175,40.7108 0.6699,16.2505 3.829,11.339 -28.0115,43.5514 -15.1419,15.3188 -31.7365,31.7756 -36.8767,36.5706 l -9.3459,8.7183 -3.9671,0 -3.9671,0 -5.274,-4.6541 z m 94.248,-81.3215 c -0.8506,-0.8506 -1.5465,-1.9873 -1.5465,-2.526 0,-0.5388 1.2966,-4.0151 2.8813,-7.7254 1.5847,-3.7102 3.755,-10.0161 4.823,-14.0132 1.7366,-6.4999 1.948,-8.2654 2.0016,-16.7183 0.054,-8.4014 -0.09,-9.7745 -1.2865,-12.3635 -3.2838,-7.1018 -9.4167,-11.2472 -16.6556,-11.2579 -6.0982,-0.01 -9.7139,1.4608 -13.8193,5.6178 -5.8628,5.9364 -6.6501,10.1532 -4.4203,23.6742 2.021,12.2544 1.546,14.8065 -2.7559,14.8065 -4.0893,0 -4.6966,-1.1813 -6.7149,-13.0618 -2.9206,-17.192 -0.037,-27.3186 9.9401,-34.9106 5.6982,-4.3359 10.6291,-5.7823 18.694,-5.4838 5.7554,0.2131 6.8908,0.4602 10.6754,2.3234 7.3623,3.6245 13.0202,10.762 15.3105,19.3144 1.1225,4.1916 1.0886,16.4732 -0.064,23.081 -0.5073,2.9089 -1.6573,7.8369 -2.5556,10.9511 -2.0324,7.0464 -7.2983,18.2318 -9.0158,19.151 -2.0361,1.0897 -3.8227,0.8102 -5.4918,-0.8589 z"
       id="path5659"
       inkscape:connector-curvature="0" />
  </g>
</svg>
